<svg xmlns="http://www.w3.org/2000/svg" width="394" height="400" viewBox="0 0 394 400"><g><g><g><path fill="#f4f0f0" d="M254.411 280.637v-23.81h23.274v23.81zm0 46.04v-23.811h23.274v23.81zm0 45.748v-23.813h23.274v23.813zm43.576-91.788v-23.81h23.273v23.81zm0 46.04v-23.811h23.273v23.81zm0 45.748v-23.813h23.273v23.813zm43.783-91.788v-23.81h23.273v23.81zm0 91.788v-69.56h23.273v69.56zM254.41 231.38v-24.196h110.836v24.196zM232.85 393.615h153.955V185.992H232.85z"/></g><g><path fill="#004493" d="M254.411 207.184h110.836v24.196H254.41z"/></g><g><path fill="#f4f0f0" d="M341.77 302.866h23.273v69.56h-23.274z"/></g><g><path fill="#f4f0f0" d="M341.77 256.827h23.273v23.81h-23.274z"/></g><g><path fill="#f4f0f0" d="M297.987 348.612h23.273v23.813h-23.273z"/></g><g><path fill="#f4f0f0" d="M297.987 302.866h23.273v23.81h-23.273z"/></g><g><path fill="#f4f0f0" d="M297.987 256.827h23.273v23.81h-23.273z"/></g><g><path fill="#f4f0f0" d="M121.59 226.865c-45.035 0-81.546-36.52-81.546-81.575 0-45.05 36.511-81.574 81.547-81.574 45.038 0 81.547 36.524 81.547 81.574 0 45.054-36.509 81.575-81.547 81.575zm-85.952 44.117v-36.54h171.908v36.54zm197.212-84.99h59.848V76.752h-67.6V6.384H6.528v387.23H232.85v-42.44z"/></g><g><path fill="#f4f0f0" d="M225.097 6.385L292.7 76.751h-67.602z"/></g><g><path fill="#f4f0f0" d="M254.411 348.612h23.274v23.813H254.41z"/></g><g><path fill="#f4f0f0" d="M254.411 302.866h23.274v23.81H254.41z"/></g><g><path fill="#f4f0f0" d="M254.411 256.827h23.274v23.81H254.41z"/></g><g><path fill="#f4f0f0" d="M189.772 234.442h17.774v36.54h-17.774z"/></g><g><path fill="#f4f0f0" d="M170.292 234.442h19.48v36.54h-19.48z"/></g><g><path fill="#004493" d="M121.59 204.4c-32.632 0-59.09-26.463-59.09-59.11 0-32.643 26.458-59.11 59.09-59.11 32.636 0 59.09 26.467 59.09 59.11 0 32.647-26.454 59.11-59.09 59.11zm-81.546-59.11c0 45.054 36.511 81.575 81.547 81.575 45.038 0 81.547-36.52 81.547-81.575 0-45.05-36.509-81.574-81.547-81.574-45.036 0-81.547 36.524-81.547 81.574z"/></g><g><path fill="#f4f0f0" d="M150.815 234.442h19.477v36.54h-19.477z"/></g><g><path fill="#004493" d="M180.68 145.29c0 32.647-26.454 59.11-59.09 59.11-32.632 0-59.09-26.463-59.09-59.11 0-32.643 26.458-59.11 59.09-59.11 32.636 0 59.09 26.467 59.09 59.11z"/></g><g><path fill="#f4f0f0" d="M131.335 234.442h19.48v36.54h-19.48z"/></g><g><path fill="#f4f0f0" d="M111.85 234.442h19.485v36.54H111.85z"/></g><g><path fill="#f4f0f0" d="M92.37 234.442h19.48v36.54H92.37z"/></g><g><path fill="#f4f0f0" d="M72.89 234.442h19.48v36.54H72.89z"/></g><g><path fill="#f4f0f0" d="M53.413 234.442h19.476v36.54H53.413z"/></g><g><path fill="#f4f0f0" d="M35.638 234.442h17.775v36.54H35.638z"/></g><g><g><path fill="#004493" d="M161.79 311.02H36.61a6.528 6.528 0 0 0-6.528 6.53c0 3.607 2.92 6.53 6.528 6.53h125.18a6.53 6.53 0 0 0 6.529-6.53 6.53 6.53 0 0 0-6.529-6.53z"/></g><g><path fill="#f4f0f0" d="M128.935 186.122v-4.776c10.156-3.578 16.254-13.96 14.44-24.576-1.817-10.615-11.016-18.377-21.784-18.377-4.992 0-9.04-4.05-9.04-9.043 0-4.997 4.048-9.047 9.04-9.047 4.995 0 9.043 4.05 9.043 9.047a6.53 6.53 0 0 0 6.528 6.53 6.53 6.53 0 0 0 6.529-6.53 22.149 22.149 0 0 0-15.572-21.123v-2.92a6.53 6.53 0 0 0-6.528-6.531 6.53 6.53 0 0 0-6.529 6.53v2.921c-10.44 3.23-16.952 13.613-15.32 24.423 1.632 10.81 10.921 18.804 21.849 18.804 4.995 0 9.043 4.05 9.043 9.047a9.044 9.044 0 0 1-9.043 9.043c-4.992 0-9.04-4.05-9.04-9.043 0-3.61-2.924-6.53-6.529-6.53a6.528 6.528 0 0 0-6.528 6.53 22.14 22.14 0 0 0 16.384 21.352v4.27a6.53 6.53 0 0 0 6.529 6.53 6.53 6.53 0 0 0 6.528-6.53z"/></g><g><path fill="#f4f0f0" d="M69.03 145.29c0-29.036 23.534-52.579 52.56-52.579 29.03 0 52.562 23.543 52.562 52.58 0 29.04-23.531 52.579-52.561 52.579-29.015-.032-52.527-23.552-52.562-52.58zm118.179 0c0-36.253-29.378-65.64-65.618-65.64-36.238 0-65.619 29.387-65.619 65.64s29.381 65.64 65.619 65.64c36.224-.037 65.58-29.403 65.618-65.64z"/></g><g><path fill="#004493" d="M42.434 240.816h4.08v23.673h-4.08zm4.138-95.526c0-41.444 33.588-75.044 75.019-75.044 41.433 0 75.018 33.6 75.018 75.044 0 41.448-33.585 75.045-75.018 75.045-41.411-.045-74.971-33.616-75.02-75.045zm154.175 119.2h-4.08v-23.674h4.08zm-134.647 0H59.57v-23.674H66.1zm19.585 0h-6.529v-23.674h6.529zm19.585-23.674v23.673H98.74v-23.673zm19.585 0v23.673h-6.529v-23.673zm19.585 23.673h-6.529v-23.673h6.529zm32.642-23.673h6.528v23.673h-6.528zm-13.057 23.673h-6.528v-23.673h6.528zm43.521 13.061a6.331 6.331 0 0 0 6.258-6.568v-36.54c0-3.607-2.653-6.687-6.258-6.687h-55.36c39.992-14.818 63.626-56.173 56.1-98.166-7.526-41.993-44.048-72.557-86.695-72.557-42.648 0-79.166 30.564-86.692 72.557-7.526 41.993 16.107 83.348 56.096 98.166H35.638c-3.605 0-6.26 3.08-6.26 6.687v36.54a6.347 6.347 0 0 0 1.746 4.604 6.331 6.331 0 0 0 4.514 1.964z"/></g><g><path fill="#004493" d="M380.277 386.938H239.1v-35.109c0-.213.035-.433.035-.65 0-.22-.035-.43-.035-.641V192.653h141.176zM13.057 13.062H218.7v63.69a6.411 6.411 0 0 0 6.398 6.514h61.334v96.326H232.85c-3.605 0-6.806 2.793-6.806 6.4v158.497H36.61a6.528 6.528 0 0 0-6.528 6.53c0 3.607 2.92 6.53 6.528 6.53h189.434v29.388H13.057zm218.7 9.544l45.618 47.599h-45.618zm155.048 156.986h-87.317V76.752a6.668 6.668 0 0 0-1.95-4.526L229.872 1.933a6.623 6.623 0 0 0-4.775-1.932H6.528a6.413 6.413 0 0 0-4.6 1.824A6.418 6.418 0 0 0 0 6.385v387.23a6.407 6.407 0 0 0 6.528 6.384h380.277a6.389 6.389 0 0 0 4.603-1.824 6.39 6.39 0 0 0 1.925-4.56V185.992a6.416 6.416 0 0 0-6.528-6.4z"/></g><g><path fill="#004493" d="M261.134 213.877h97.925v10.612h-97.925zm110.982-6.53a6.53 6.53 0 0 0-6.528-6.53H254.606a6.53 6.53 0 0 0-6.529 6.53v24.49a6.53 6.53 0 0 0 6.529 6.53h110.982a6.53 6.53 0 0 0 6.528-6.53z"/></g><g><path fill="#004493" d="M261.134 263.673h9.793v10.612h-9.793zm23.665-6.53a6.53 6.53 0 0 0-6.528-6.531h-23.665a6.53 6.53 0 0 0-6.529 6.53v23.674a6.53 6.53 0 0 0 6.529 6.53h23.665a6.53 6.53 0 0 0 6.528-6.53z"/></g><g><path fill="#004493" d="M261.134 309.387h9.793v10.612h-9.793zm23.665-6.53a6.53 6.53 0 0 0-6.528-6.531h-23.665a6.53 6.53 0 0 0-6.529 6.53v23.674a6.53 6.53 0 0 0 6.529 6.53h23.665a6.53 6.53 0 0 0 6.528-6.53z"/></g><g><path fill="#004493" d="M261.134 355.1h9.793v10.613h-9.793zm23.665-6.53a6.53 6.53 0 0 0-6.528-6.53h-23.665a6.53 6.53 0 0 0-6.529 6.53v23.674a6.53 6.53 0 0 0 6.529 6.53h23.665a6.53 6.53 0 0 0 6.528-6.53z"/></g><g><path fill="#004493" d="M314.993 274.285h-10.608v-10.612h10.608zm13.057-17.143a6.53 6.53 0 0 0-6.529-6.53h-23.665a6.53 6.53 0 0 0-6.528 6.53v23.674a6.53 6.53 0 0 0 6.528 6.53h23.665a6.53 6.53 0 0 0 6.529-6.53z"/></g><g><path fill="#004493" d="M314.993 320h-10.608v-10.613h10.608zm13.057-17.144a6.53 6.53 0 0 0-6.529-6.53h-23.665a6.53 6.53 0 0 0-6.528 6.53v23.674a6.53 6.53 0 0 0 6.528 6.53h23.665a6.53 6.53 0 0 0 6.529-6.53z"/></g><g><path fill="#004493" d="M314.993 365.713h-10.608v-10.612h10.608zm13.057-17.143a6.53 6.53 0 0 0-6.529-6.53h-23.665a6.53 6.53 0 0 0-6.528 6.53v23.674a6.53 6.53 0 0 0 6.528 6.53h23.665a6.53 6.53 0 0 0 6.529-6.53z"/></g><g><path fill="#004493" d="M358.243 274.285h-9.792v-10.612h9.792zm13.873-17.143a6.53 6.53 0 0 0-6.528-6.53h-23.665a6.53 6.53 0 0 0-6.529 6.53v23.674a6.53 6.53 0 0 0 6.529 6.53h23.665a6.53 6.53 0 0 0 6.528-6.53z"/></g><g><path fill="#004493" d="M358.243 365.713h-9.792v-56.326h9.792zm13.873-62.857a6.53 6.53 0 0 0-6.528-6.53h-23.665a6.53 6.53 0 0 0-6.529 6.53v69.388a6.53 6.53 0 0 0 6.529 6.53h23.665a6.53 6.53 0 0 0 6.528-6.53z"/></g></g></g></g></svg>