<svg xmlns="http://www.w3.org/2000/svg" width="338" height="250" viewBox="0 0 338 250"><g><g><g><path fill="#004493" d="M332.591 212.573v15.734c.003 8.882-7.176 16.085-16.033 16.086H21.443c-8.856 0-16.036-7.202-16.034-16.084v-15.736z"/></g><g><path fill="#f4f0f0" d="M332.591 159.145v53.428H5.41v-53.428c-.003-8.883 7.176-16.085 16.034-16.086h21.653v28.147h59.346V143.06h36.885v28.147h59.347V143.06h36.884v28.147h59.347V143.06h21.653c8.855 0 16.035 7.201 16.033 16.084z"/></g><g><path fill="#f4f0f0" d="M310.319 67.174l-.24 5.678c-.471 21.072-18.174 38.585-39.18 39.298l-5.668.233.24-5.678c.704-21.065 18.406-38.584 39.18-39.298z"/></g><g><path fill="#f4f0f0" d="M265.231 48.235v2.606h-3.774c-21.956-.713-40.602-19.413-41.306-41.424V5.625h3.774c21.949.713 40.602 19.413 41.306 41.43z"/></g><g><path fill="#f4f0f0" d="M214.088 67.174l-.24 5.678c-.472 21.072-18.174 38.585-39.18 39.298l-5.668.233.24-5.678c.704-21.065 18.406-38.584 39.18-39.298z"/></g><g><path fill="#f4f0f0" d="M169 48.235v2.606h-3.774c-21.956-.713-40.602-19.413-41.314-41.424V5.625h3.782c21.949.713 40.595 19.413 41.306 41.43z"/></g><g><path fill="#f4f0f0" d="M113.04 67.174l-.232 5.678c-.479 21.072-18.182 38.585-39.187 39.298l-5.661.233.232-5.678c.711-21.065 18.414-38.584 39.187-39.298z"/></g><g><path fill="#f4f0f0" d="M67.96 48.235v2.606h-3.782C42.23 50.128 23.583 31.428 22.872 9.417V5.625h3.774c21.956.713 40.602 19.413 41.314 41.43z"/></g><g><path fill="#004493" d="M11.267 228.307v-10.084h315.466v10.084a10.234 10.234 0 0 1-2.917 7.334 10.175 10.175 0 0 1-7.258 3.06H21.443a10.175 10.175 0 0 1-7.26-3.06 10.234 10.234 0 0 1-2.916-7.334zm10.176-79.288H37.32v22.187c0 3.12 2.664 5.353 5.775 5.353h59.347a5.1 5.1 0 0 0 3.818-1.511 5.13 5.13 0 0 0 1.477-3.842V149.02h26.054v22.187a5.327 5.327 0 0 0 1.622 3.867 5.296 5.296 0 0 0 3.913 1.486h59.347a5.296 5.296 0 0 0 3.912-1.486 5.327 5.327 0 0 0 1.622-3.867V149.02h26.054v22.187a5.13 5.13 0 0 0 1.477 3.842 5.1 5.1 0 0 0 3.819 1.511h59.347c3.11 0 5.774-2.233 5.774-5.353V149.02h15.879a9.95 9.95 0 0 1 7.23 2.897 10.008 10.008 0 0 1 2.945 7.229v47.779H11.267v-47.78a10.008 10.008 0 0 1 2.945-7.228 9.95 9.95 0 0 1 7.23-2.897zM39.544 34.12a37.193 37.193 0 0 1-10.904-22.71 37.01 37.01 0 0 1 22.646 10.935 37.198 37.198 0 0 1 10.904 22.71A37.004 37.004 0 0 1 39.544 34.12zm67.622 38.95c-.589 17.708-15.406 32.572-33.328 33.416.816-17.715 15.621-32.573 33.328-33.417zm33.42-38.95a37.186 37.186 0 0 1-10.905-22.71c17.641 1.99 31.564 15.953 33.55 33.644a37.01 37.01 0 0 1-22.645-10.934zm67.62 38.95c-.582 17.708-15.397 32.572-33.32 33.416m61.932-72.366a37.17 37.17 0 0 1-10.9-22.71c17.64 1.991 31.561 15.954 33.545 33.644a37.007 37.007 0 0 1-22.645-10.934zm67.62 38.95c-.583 17.708-15.398 32.572-33.32 33.416m66.881 121.82v-69.162a21.331 21.331 0 0 0-6.248-15.214 21.21 21.21 0 0 0-15.193-6.211h-21.653a5.249 5.249 0 0 0-3.895 1.481 5.28 5.28 0 0 0-1.598 3.858v22.201h-18.308v-47.454l.106-.009c24.05-.817 43.994-20.89 44.56-44.76l.207-5.623a5.681 5.681 0 0 0-1.658-4.232 5.648 5.648 0 0 0-4.224-1.651l-5.515.231a45.275 45.275 0 0 0-33.476 16.629V47.056c0-.061-.12-.121-.123-.181C270.18 21.828 249.147.812 224.167 0c-.06 0-.182.018-.242.018h-3.774a5.379 5.379 0 0 0-3.88 1.657 5.41 5.41 0 0 0-1.5 3.95v3.792c0 .061-.007.121-.005.181.784 24.48 20.425 45.117 45.071 46.792v108.87H241.53V143.06c0-3.12-2.86-5.339-5.971-5.339h-36.884c-3.111 0-5.732 2.219-5.732 5.339v22.201h-18.309v-47.454l.226-.009c24.05-.817 44.054-20.89 44.62-44.76l.236-5.623a5.658 5.658 0 0 0-1.642-4.23 5.625 5.625 0 0 0-4.216-1.653l-5.634.231c-13.266.456-25.35 6.897-33.592 16.63v-31.52C173.82 21.828 152.848.813 127.874 0c-.06 0-.122.018-.182.018h-3.782a5.571 5.571 0 0 0-3.969 1.632 5.603 5.603 0 0 0-1.64 3.975v3.792c0 .061-.01.122-.008.183.79 24.48 20.843 45.115 45.074 46.79v108.87h-18.309V143.06c0-3.12-2.62-5.34-5.731-5.34h-36.885c-3.11 0-5.97 2.22-5.97 5.34v22.201H73.937v-47.454l.046-.008c24.048-.817 43.97-20.891 44.54-44.763l.188-5.628a5.692 5.692 0 0 0-1.668-4.227 5.658 5.658 0 0 0-4.224-1.649l-5.455.232a45.166 45.166 0 0 0-33.427 16.63V47.056c0-.062-.174-.122-.176-.183C72.952 21.827 51.89.81 26.915 0c-.061 0-.211.018-.269.018h-3.774C19.76.018 16.9 2.505 16.9 5.625v3.792c0 .061.343.122.345.183.79 24.481 20.78 45.119 45.425 46.79v108.87H48.588V143.06a5.28 5.28 0 0 0-1.598-3.858 5.249 5.249 0 0 0-3.894-1.481H21.443a21.21 21.21 0 0 0-15.194 6.21A21.332 21.332 0 0 0 0 159.146v69.161a21.56 21.56 0 0 0 6.22 15.32A21.437 21.437 0 0 0 21.442 250h295.116a21.437 21.437 0 0 0 15.221-6.373 21.56 21.56 0 0 0 6.22-15.32z"/></g></g></g></svg>