<svg xmlns="http://www.w3.org/2000/svg" width="140" height="36" viewBox="0 0 140 36"><g><g><g><g><path fill="#161615" d="M50.247 33.341c-1.761 1.742-4.036 2.552-6.506 2.552-6.36 0-9.05-4.392-9.075-8.857-.024-4.489 2.886-9.052 9.075-9.052 2.323 0 4.525.883 6.286 2.625l-2.153 2.085c-1.125-1.104-2.641-1.619-4.133-1.619-4.134 0-5.92 3.09-5.895 5.961.024 2.846 1.663 5.815 5.895 5.815 1.492 0 3.18-.614 4.305-1.742z"/></g><g><path fill="#161615" d="M54.085 28.29c.426-1.52 1.705-2.28 3.268-2.28 1.658 0 2.842.76 3.031 2.28zm9.07 2.399c.45-4.822-1.99-7.245-5.897-7.245-3.789 0-6.204 2.565-6.204 6.128 0 3.753 2.391 6.247 6.417 6.247 1.776 0 3.79-.617 5.021-1.9l-1.847-1.83c-.663.69-2.06 1.093-3.126 1.093-2.037 0-3.292-1.045-3.482-2.493z"/></g><g><path fill="#161615" d="M74.264 36v-6.438c0-1.87-1.02-3.293-2.96-3.293-1.866 0-3.134 1.323-3.134 3.194V36h-3.01V23.674h2.91v1.423c1.244-1.223 2.488-1.597 4.03-1.597 2.886 0 5.2 2.17 5.2 6.038V36z"/></g><g><path fill="#161615" d="M84.291 35.897c-2.655 0-5.088-1.419-5.088-4.48v-5.303h-.794V23.5h.794v-5.228h3.029V23.5h1.141v2.614h-1.166v5.302c0 1.17 1.141 1.743 2.085 1.743z"/></g><g><path fill="#161615" d="M89.23 23.446v6.437c0 1.872 1.02 3.294 2.96 3.294 1.865 0 3.134-1.572 3.134-3.443v-6.288h3.01v12.325h-2.712l-.199-1.671c-1.268 1.247-2.437 1.846-4.154 1.846-2.935 0-5.075-2.22-5.075-6.038v-6.462z"/></g><g><path fill="#161615" d="M106.698 26.46c-1.56 0-3.389.83-3.389 3.056v6.359h-2.975V23.818h2.975v1.394c.927-1.492 2.17-1.712 3.39-1.712z"/></g><g><path fill="#161615" d="M111.699 23.5v12.375h-3.041V23.5zm-.05-5v2.875h-3.016V18.5z"/></g><g><path fill="#161615" d="M119.845 26.193c1.969 0 3.217 1.733 3.217 3.515 0 1.805-1.08 3.49-3.217 3.49-2.136 0-3.216-1.685-3.216-3.49 0-1.782 1.104-3.515 3.216-3.515zm6.17 3.515c0-3.395-2.425-6.188-6.194-6.188-3.768 0-6.12 2.793-6.12 6.188 0 3.418 2.304 6.187 6.144 6.187 3.841 0 6.17-2.769 6.17-6.187z"/></g><g><path fill="#161615" d="M136.995 35.875v-6.373c0-1.852-1.01-3.26-2.93-3.26-1.847 0-3.103 1.309-3.103 3.161v6.472h-2.98V23.673h2.88v1.408c1.232-1.21 2.464-1.581 3.99-1.581 2.858 0 5.148 2.149 5.148 5.977v6.398z"/></g></g><g><g><path fill="#004493" d="M32.466.096C33.254.037 34.044.022 34.833 0c.002 2.735 0 5.47 0 8.204-.004 2.062.01 4.124-.006 6.186-3.054.018-6.123.673-8.865 2.037-1.628.8-3.135 1.839-4.49 3.043-1.719 1.537-3.232 3.31-4.436 5.28a20.355 20.355 0 0 0-1.724 3.56c-.918 2.45-1.327 5.077-1.321 7.689H0c-.023-4.63.786-9.28 2.506-13.583 1.426-3.588 3.48-6.915 5.981-9.848a38.411 38.411 0 0 1 5.672-5.469c2.587-2.023 5.457-3.69 8.523-4.868C25.808 1.018 29.125.326 32.466.096z"/></g></g></g></g></svg>