<svg xmlns="http://www.w3.org/2000/svg" width="250" height="300" viewBox="0 0 250 300"><g><g><g><path fill="#f4f0f0" d="M245.073 107.577v35.354l-26.227 2.52a97.03 97.03 0 0 1-13.588 32.203l16.746 20.197-18.935 16.723-28.17-39c27.822-27.791 27.822-72.849 0-100.64-27.824-27.792-72.932-27.792-100.753 0-27.822 27.791-27.822 72.849-.002 100.64L46.931 214.58l-18.933-16.728 16.746-20.204a96.952 96.952 0 0 1-13.59-32.195l-26.224-2.52v-35.348l26.224-2.528a94.384 94.384 0 0 1 13.59-32.195l-16.746-20.2L52.96 27.726l20.22 16.728a97.241 97.241 0 0 1 32.232-13.573l2.53-26.202h34.114l2.53 26.202a97.221 97.221 0 0 1 32.232 13.573l20.22-16.728 24.965 24.935-16.746 20.2a94.268 94.268 0 0 1 13.588 32.195z"/></g><g><path fill="#004493" d="M175.492 214.425c20.998 35.803-8.673 80.8-50.492 80.8-32.332 0-57.41-26.902-57.41-55.746a49.71 49.71 0 0 1 6.92-25.245L125 144.16z"/></g><g><g><path fill="#004493" d="M240.43 138.59l-21.97 2.106a4.822 4.822 0 0 0-4.247 3.724 91.955 91.955 0 0 1-12.938 30.615 4.775 4.775 0 0 0 .308 5.666l13.789 16.635-11.509 10.163-22.762-31.512c27.54-30.615 25.65-77.572-4.261-105.882-29.912-28.31-76.955-27.668-106.079 1.45-28.687 28.657-29.61 74.706-2.77 104.481l-21.913 31.41-11.443-10.11 13.794-16.642a4.775 4.775 0 0 0 .317-5.666 91.88 91.88 0 0 1-12.92-30.608 4.862 4.862 0 0 0-4.284-3.724L9.57 138.59v-26.667l21.973-2.112a4.825 4.825 0 0 0 4.254-3.745A89.303 89.303 0 0 1 48.714 75.5a4.773 4.773 0 0 0-.295-5.69L34.455 52.965l18.807-18.782 16.866 13.953a4.789 4.789 0 0 0 5.675.315 92.09 92.09 0 0 1 30.642-12.902 4.72 4.72 0 0 0 3.729-4.157l2.114-21.833h25.424l2.114 21.831a4.752 4.752 0 0 0 3.729 4.182 92.09 92.09 0 0 1 30.642 12.893 4.79 4.79 0 0 0 5.673-.324l16.865-13.955 18.805 18.78-13.969 16.848a4.778 4.778 0 0 0-.303 5.687 89.095 89.095 0 0 1 12.9 30.563 4.865 4.865 0 0 0 4.29 3.748l21.973 2.105zm5.173-35.772l-22.849-2.191a98.594 98.594 0 0 0-11.569-27.397L225.7 55.711a4.78 4.78 0 0 0-.306-6.429l-24.967-24.935a4.789 4.789 0 0 0-6.437-.299l-17.555 14.516a101.496 101.496 0 0 0-27.411-11.536L146.82 4.271A4.739 4.739 0 0 0 142.057 0h-34.114a4.737 4.737 0 0 0-4.761 4.27l-2.204 22.78a101.487 101.487 0 0 0-27.413 11.527L56.012 24.05a4.79 4.79 0 0 0-6.434.298L24.613 49.287a4.775 4.775 0 0 0-.3 6.427l14.525 17.518a98.657 98.657 0 0 0-11.555 27.397l-22.884 2.199A4.846 4.846 0 0 0 0 107.584v35.347a4.844 4.844 0 0 0 4.4 4.759l22.862 2.193a101.324 101.324 0 0 0 11.567 27.383l-14.527 17.538a4.774 4.774 0 0 0 .52 6.627l18.939 16.728a4.775 4.775 0 0 0 3.738 1.167 4.779 4.779 0 0 0 3.36-2.014l27.212-39.005a4.777 4.777 0 0 0-.542-6.112c-25.953-25.924-25.956-67.958 0-93.882 25.954-25.925 68.033-25.925 93.986 0 25.954 25.924 25.954 67.958 0 93.882a4.772 4.772 0 0 0-.497 6.175l28.17 39a4.787 4.787 0 0 0 7.049.784l18.935-16.723a4.773 4.773 0 0 0 .517-6.63l-14.534-17.532a101.34 101.34 0 0 0 11.55-27.388l22.898-2.196a4.838 4.838 0 0 0 4.397-4.754v-35.354a4.846 4.846 0 0 0-4.397-4.759z"/></g><g><path fill="#004493" d="M171.032 263.59c-9.437 16.525-26.987 26.763-46.032 26.856a52.606 52.606 0 0 1-37.439-15.654c-9.651-9.668-15.186-22.539-15.186-35.313a44.8 44.8 0 0 1 6.154-22.646l46.464-64.483 46.478 64.677c8.401 14.471 8.245 31.43-.44 46.563zm8.345-51.954l-50.49-70.352a4.874 4.874 0 0 0-3.882-2.086 4.888 4.888 0 0 0-3.886 2.079L70.63 211.394c-.089.126-.173.277-.25.41a54.275 54.275 0 0 0-7.574 27.663c0 15.286 6.551 30.623 17.975 42.07A62.13 62.13 0 0 0 125 300c22.475-.096 43.188-12.165 54.335-31.658 10.319-17.983 10.424-39.045.285-56.337a5.87 5.87 0 0 0-.243-.369z"/></g><g><path fill="#fff" d="M155.252 233.769a4.782 4.782 0 0 0-4.784 4.779c-.061 14.21-11.623 25.691-25.851 25.665a4.782 4.782 0 0 0-4.785 4.78c0 2.64 2.143 4.779 4.785 4.779 19.51.021 35.355-15.738 35.42-35.224 0-2.64-2.142-4.78-4.785-4.78z"/></g></g></g></g></svg>