<svg xmlns="http://www.w3.org/2000/svg" width="370" height="300" viewBox="0 0 370 300"><g><g><g><path fill="#f4f0f0" d="M269.04 130.504h59.281v163.56H269.04z"/></g><g><path fill="#f4f0f0" d="M159.316 160.305h59.282v133.759h-59.282z"/></g><g><path fill="#004493" d="M165.227 95.292c0 38.43-31.117 69.59-69.5 69.59-38.385 0-69.502-31.16-69.502-69.59 0-38.434 31.117-69.59 69.503-69.59 38.382 0 69.499 31.156 69.499 69.59z"/></g><g><path fill="#f4f0f0" d="M49.587 215.797h59.282v78.267H49.587z"/></g><g><g><path fill="#004493" d="M188.666 112.587a6.118 6.118 0 0 0 4.253-1.711l39.65-38.083 41.074 32.396a6.136 6.136 0 0 0 7.569.024l57.33-44.614-1.968 25.613a6.146 6.146 0 0 0 6.13 6.62 6.144 6.144 0 0 0 6.118-5.677l3.032-39.503a6.15 6.15 0 0 0-1.47-4.486 6.155 6.155 0 0 0-4.21-2.12l-42.491-3.045a6.143 6.143 0 0 0-6.541 5.7 6.143 6.143 0 0 0 5.662 6.57l26.555 1.9-51.887 40.38-41.498-32.73a6.136 6.136 0 0 0-8.052.394L184.414 102a6.156 6.156 0 0 0-1.446 6.732 6.14 6.14 0 0 0 5.698 3.855z"/></g><g><path fill="#004493" d="M56.043 221.592h46.83v66.106h-46.83zm109.784-55.345h46.83v121.451h-46.83zm109.015-29.21h47.599v150.661h-47.599zm59.882 150.661V130.504c0-3.396-3.01-5.765-6.403-5.765H269.04c-3.391 0-6.48 2.369-6.48 5.765v157.194H224.94V160.305a6.5 6.5 0 0 0-6.343-6.357h-59.282c-3.392 0-5.773 2.961-5.773 6.357v127.393h-38.386v-71.901a6.586 6.586 0 0 0-6.288-6.504H49.587c-3.392 0-5.827 3.108-5.827 6.504v71.901H12.283V6.15C12.283 2.753 9.533 0 6.142 0A6.146 6.146 0 0 0 0 6.15v287.914a6.017 6.017 0 0 0 1.844 4.267 5.987 5.987 0 0 0 4.337 1.666h357.677a6.146 6.146 0 0 0 6.142-6.15c0-3.395-2.75-6.149-6.142-6.149z"/></g><g><path fill="#fff" d="M95.728 125.384c-6.721-.009-12.164-5.461-12.17-12.19 0-3.396-2.75-6.15-6.142-6.15a6.146 6.146 0 0 0-6.141 6.15c.015 10.944 7.269 20.556 17.78 23.555v5.67c0 3.395 2.75 6.149 6.142 6.149a6.146 6.146 0 0 0 6.141-6.15v-5.392c12.086-2.85 20.12-14.314 18.684-26.66-1.434-12.348-11.882-21.659-24.294-21.653-6.724-.003-12.17-5.459-12.17-12.19 0-6.73 5.449-12.185 12.17-12.185 6.723 0 12.172 5.452 12.175 12.181 0 3.396 2.75 6.15 6.142 6.15a6.146 6.146 0 0 0 6.141-6.15c-.015-11.647-8.213-21.679-19.615-23.997v-5.42c0-3.396-2.75-6.149-6.142-6.149a6.146 6.146 0 0 0-6.142 6.15V53.2C76.805 56.873 69.71 68.37 71.563 80.294c1.856 11.926 12.112 20.718 24.165 20.718 6.72 0 12.172 5.456 12.172 12.188s-5.452 12.187-12.172 12.187z"/></g><g><path fill="#004493" d="M95.728 31.852c34.99 0 63.357 28.402 63.357 63.44 0 35.035-28.366 63.44-63.357 63.44-34.994 0-63.361-28.405-63.361-63.44.039-35.02 28.385-63.398 63.36-63.44zm0 139.179c41.774 0 75.64-33.91 75.64-75.74 0-41.829-33.866-75.738-75.64-75.738-41.778 0-75.644 33.91-75.644 75.739.048 41.809 33.884 75.69 75.644 75.739z"/></g></g></g></g></svg>